<?xml version="1.0" encoding="UTF-8"?>
<svg id="Layer_1" data-name="Layer 1" xmlns="http://www.w3.org/2000/svg" viewBox="0 0 1920 242.26">
  <defs>
    <style>
      .cls-1 {
        fill: #dfeab0;
        stroke-width: 0px;
      }
    </style>
  </defs>
  <path class="cls-1" d="m1822.14,216.93c-1.07.12-2.15.06-3.21-.16l-167.9-35.38c-42.64-8.98-86.24-9.25-128.96-.8l-116.44,23.05v-6.5c.12-8.29.41-17.09.87-26.85,1.02,1.59,2.06,3.17,3.08,4.72,1.47,2.23,2.79,4.25,4.1,6.33,1.06,1.68,2.88,2.65,4.91,2.61,2.05-.11,3.95-1.34,4.84-3.12.85-1.7.73-3.63-.34-5.31-1.29-2.05-2.64-4.1-3.94-6.08l-.23-.35c-4.31-6.54-8.38-12.72-11.27-19.7.31-5.13.63-10.27.95-15.4l.02-.4c.13.23.27.45.4.67l.52.88c1.65,2.79,3.35,5.68,4.89,8.56.95,1.79,2.6,2.85,4.53,2.91,2.02.05,3.98-1.05,5.03-2.81,1.01-1.7,1.05-3.71.09-5.51-1.59-3-3.35-5.94-5.06-8.78-3.63-6.03-7.02-11.68-9.04-18.04.21-3.69.4-7.41.57-11.09,1.87,4.29,3.18,8.02,4.06,11.63.48,1.98,1.83,3.43,3.7,3.98,1.94.55,4.12,0,5.56-1.43,1.39-1.38,1.91-3.31,1.42-5.3-2.16-8.8-6.13-16.77-9.98-24.48-1.87-3.76-3.78-7.6-5.44-11.43-.84-1.94-2.52-3.07-4.73-3.15-2.32.04-4.52,1.57-5.38,3.74-3.42,8.57-8.2,16.72-12.82,24.62l-.24.41c-1.36,2.33-2.72,4.65-4.05,6.98-1.02,1.79-1.04,3.81-.06,5.56.95,1.71,2.96,2.93,4.89,2.97.02,0,.03,0,.05,0,1.91,0,3.58-1,4.57-2.75,1.24-2.18,2.5-4.35,3.76-6.52l.21-.36c1.17-2.02,2.36-4.06,3.54-6.12-.17,3.7-.36,7.49-.58,11.32-6.61,7.48-12.33,15.28-16.99,23.19-1.03,1.76-1.09,3.77-.15,5.52,1.03,1.91,3,3.14,4.93,3.04,1.9.03,3.6-.95,4.62-2.69,1.95-3.31,4.1-6.62,6.43-9.87l-1.18,19.26c-2.56,2.74-5.27,5.43-7.88,8.03-3.28,3.25-6.62,6.57-9.75,10.05-1.09,1.21-1.61,2.75-1.46,4.34.14,1.44.81,2.82,1.85,3.81,1.07,1.02,2.43,1.56,3.81,1.5,1.38-.05,2.68-.68,3.67-1.77,2.8-3.11,5.83-6.13,8.79-9.07-.58,11.43-.94,21.68-1.09,31.3v5.83c-3.1-.66-5.89-.09-8.54,1.08l-31.08-2.77-.92-5.47c-2.3-15.4-3.69-31.43-4.27-48.96.6.7,1.21,1.38,1.81,2.07,3.61,4.11,6.96,7.93,9.61,12.35,1.05,1.74,2.8,2.7,4.8,2.7,2.04-.06,3.96-1.25,4.9-3.03.9-1.7.82-3.66-.21-5.37-2.95-4.91-6.65-9.11-10.23-13.18-4.14-4.71-8.06-9.15-10.78-14.49-.06-.12-.12-.23-.19-.33,0-7.37.13-14.97.4-23.2,3.84,5.12,8.23,9.8,12.49,14.34l1.05,1.12c1.02,1.09,2.36,1.71,3.77,1.74.02,0,.04,0,.06,0,1.43.02,2.82-.57,3.91-1.64,2.26-2.23,2.35-5.62.21-7.9l-2.32-2.46c-6.89-7.27-14.01-14.79-17.51-24.22-.19-.52-.45-1-.77-1.44.34-6.37.73-12.9,1.19-19.91.56.79,1.13,1.57,1.69,2.35,3.15,4.38,6.39,8.89,8.77,13.73.89,1.8,2.49,2.89,4.38,3,1.81.2,3.97-.92,5.09-2.67,1.07-1.67,1.17-3.76.27-5.59-2.54-5.14-5.89-9.74-9.13-14.19-3.82-5.24-7.42-10.18-9.72-15.84l1.26-17.17c3.66,6.26,7.42,11.3,11.48,15.38,2.24,2.24,5.61,2.18,7.85-.14,1.04-1.09,1.61-2.48,1.61-3.92,0-1.44-.58-2.82-1.63-3.87-8.32-8.36-13.61-19.81-18.73-30.88l-.28-.6c-.91-1.98-2.81-3.17-4.96-3.06-2.3.1-4.37,1.64-5.15,3.82-3.22,8.99-8.56,16.61-14.21,24.68-2.3,3.29-4.64,6.63-6.8,10.02-1.08,1.7-1.21,3.68-.34,5.42.9,1.82,2.79,3.07,4.81,3.18,1.86.19,3.68-.75,4.82-2.55,2.17-3.42,4.52-6.8,6.59-9.79l.15-.21c1.19-1.73,2.42-3.5,3.62-5.29l-.9,12.01c-6.13,12.77-12.43,23.38-19.24,32.47-.88,1.17-1.27,2.56-1.09,3.93.18,1.36.91,2.61,2.05,3.51,2.26,1.77,5.89,1.89,8.06-1,2.91-3.88,5.68-7.96,8.43-12.43-.42,6.7-.77,12.96-1.07,19.1-2.37,3.89-4.91,7.75-7.15,11.17-3.91,5.96-7.95,12.13-11.43,18.6-.97,1.79-.94,3.89.08,5.62,1.02,1.73,2.87,2.8,4.97,2.87,1.91-.04,3.53-1.08,4.47-2.84,2.52-4.69,5.42-9.3,8.24-13.64-.18,7.08-.27,13.85-.25,20.65-4.31,5.95-8.07,12.3-11.7,18.45l-.29.48c-1.89,3.21-3.86,6.52-5.87,9.72-1.66,2.64-.94,5.93,1.66,7.65,2.67,1.76,5.95,1.06,7.64-1.63,2.14-3.4,4.21-6.92,6.21-10.32l.08-.15c.87-1.47,1.74-2.96,2.62-4.45.4,10.73,2,32.8,3.62,50.59l-51.08-4.56c-.89-14.95-1.64-31.59-1.57-39.09,2.24,4.48,4.54,8.85,7.38,12.98.89,1.29,2.13,2.12,3.6,2.38,1.54.27,3.14-.11,4.43-1.04,2.45-1.77,2.98-4.87,1.25-7.37-3.21-4.67-5.81-9.93-8.33-15.01-2.31-4.67-4.69-9.49-7.63-14.05.27-5.1.61-10.63,1.08-17.28,2.28,5.25,4.23,9.78,6.15,14.36.57,1.36,1.57,2.39,2.82,2.9,1.24.51,2.67.46,4.01-.13,1.32-.58,2.43-1.68,3.03-3.01.67-1.47.68-3.13.04-4.67-2.49-5.94-5.06-11.82-7.54-17.5l-.07-.16c-2.21-5.04-4.48-10.26-6.66-15.42.22-2.95.47-6.26.72-9.79,1.5,4.12,3.01,7.86,4.59,11.4.6,1.34,1.63,2.35,2.92,2.84,1.29.49,2.73.42,4.05-.2,1.3-.6,2.37-1.72,2.94-3.04.63-1.47.61-3.11-.07-4.62-4.92-11.03-8.44-22.85-11.84-34.28l-.75-2.52c-.85-2.84-3.72-4.57-6.53-3.96-2.51.31-4.41,2.22-4.72,4.77l-1.15,2.05c-6.74,11.96-13.71,24.33-17.88,38.05-.59,1.95-.18,3.9,1.13,5.35,1.36,1.52,3.51,2.2,5.48,1.73,1.9-.44,3.33-1.82,3.93-3.78,1.67-5.5,4.02-11.33,7.19-17.78-.24,3.71-.52,7.68-.86,12.29-6.6,9.65-15.6,22.85-20.64,37.42-.66,1.9-.33,3.83.89,5.29,1.28,1.54,3.39,2.28,5.41,1.91,1.93-.37,3.49-1.74,4.15-3.68,1.99-5.76,4.71-11.51,8.5-17.97-.49,6.95-.87,13.01-1.15,18.5-2.23,3.99-4.91,7.83-7.49,11.55-3.7,5.31-7.42,10.77-10.22,16.91-1,2.44-2.18,6.52,2.62,8.9.71.35,1.57.3,2.37.19,2.02-.26,3.71-1.56,4.51-3.48,1.99-4.8,4.75-9.07,7.49-13.03-.11,8.43.25,25.55.82,40.03l-294.44-26.26-239.35-9.83c-.48-.02-.95-.07-1.43-.16l-104.24-19.15c-46-8.45-92.83-7.81-138.66,1.89l-145.2,30.73c-.7.15-1.41.22-2.12.22h-143.57c-.7,0-1.4.07-2.09.22L0,215.35v26.91h1920v-36.01l-97.86,10.68Z"/>
</svg>