<?xml version="1.0" encoding="UTF-8"?>
<svg id="Layer_1" data-name="Layer 1" xmlns="http://www.w3.org/2000/svg" viewBox="0 0 1920 108.07">
  <defs>
    <style>
      .cls-1 {
        fill: #dfeab0;
        stroke-width: 0px;
      }
    </style>
  </defs>
  <path class="cls-1" d="m1921.56,68.37h-4.68c-47.3,0-94.19-6.87-138.29-20.26l-86.28-26.2c-16.04-4.87-33.85-4.73-49.76.41l-69.23,22.34c-4.61,1.49-9.42,2.57-14.34,3.22l-136.12,18.05c-12.32,1.63-24.42,4.19-36.11,7.65l-4.33,1.28c-21.23,6.26-43.73,9.47-66.41,9.47h-6.53c-27.54,0-54.94-3.01-81.41-8.96l-57.53-12.92c-11.01-2.47-22.65-2.69-33.81-.64l-70.21,12.93c-11.88,2.19-24.29,1.79-35.9-1.14l-7.08-1.79c-19.93-5.03-40.72-7.69-61.66-7.89l-36.04-.34c-4.49-.04-8.97-.44-13.36-1.18l-17.44-2.95c-27.6-4.67-55.69-7.36-83.91-8.04l-77.64-1.87c-6.11-.15-12.17-.95-18.01-2.38l-69.55-17.1c-14.08-3.46-29.23-3.19-43.08.78l-78.44,22.46c-6.04,1.73-12.36,2.77-18.78,3.09l-51.2,2.54c-6.03.3-11.97,1.23-17.68,2.78l-33.98,9.21c-32.78,8.88-67.22,13.41-101.9,13.41H1.56v23.77h1920v-39.71Z"/>
</svg>