<?xml version="1.0" encoding="UTF-8"?>
<svg id="Layer_1" data-name="Layer 1" xmlns="http://www.w3.org/2000/svg" viewBox="0 0 1920 93.16">
  <defs>
    <style>
      .cls-1 {
        fill: #f5f5f4;
        stroke-width: 0px;
      }
    </style>
  </defs>
  <path class="cls-1" d="m277.28,93.16c34.68,0,69.12-4.53,101.9-13.41l33.98-9.21c5.71-1.55,11.65-2.48,17.68-2.78l51.2-2.54c6.42-.32,12.74-1.36,18.78-3.09l78.44-22.46c13.86-3.97,29.01-4.24,43.08-.78l69.55,17.1c5.84,1.43,11.9,2.24,18.01,2.38l77.64,1.87c28.23.68,56.31,3.37,83.91,8.04l17.44,2.95c4.39.74,8.87,1.14,13.36,1.18l36.04.34c20.94.2,41.73,2.85,61.66,7.89l7.08,1.79c11.61,2.93,24.03,3.32,35.9,1.14l70.21-12.93c11.15-2.05,22.79-1.83,33.81.64l57.53,12.91c26.47,5.94,53.87,8.96,81.41,8.96h6.53c22.69,0,45.18-3.21,66.41-9.47l4.33-1.28c11.7-3.45,23.79-6.01,36.11-7.65l136.12-18.05c4.92-.65,9.73-1.73,14.34-3.22l69.23-22.34c15.9-5.13,33.72-5.28,49.76-.41l86.28,26.2c44.1,13.39,90.99,20.26,138.29,20.26h26.7V0H0v93.16h277.28Z"/>
</svg>