<?xml version="1.0" encoding="UTF-8"?>
<svg id="Layer_1" data-name="Layer 1" xmlns="http://www.w3.org/2000/svg" viewBox="0 0 1919.22 84.84">
  <defs>
    <style>
      .cls-1 {
        fill: #dfeab0;
        stroke-width: 0px;
      }
    </style>
  </defs>
  <path class="cls-1" d="m1919.22,0H0v59.74c33.84,1.92,140.95,4.29,288.29-28.52,1.74-.39,3.47-.83,5.16-1.34,10.67-3.18,64.48-16.8,158.3-.76,104.67,17.9,187.8,51.68,306.3,14.7,1.21-.38,14.69-6.04,27.17-7.9,6.25-.93,27.6-8.02,112.83,7.75,97.4,18.02,129.28-1.39,217.83,11.78,88.55,13.17,249.79-3.82,312.58,13.17,156.29,42.27,197.72-11.74,271.1-9.47,75.23,2.33,161.71-2.57,219.67-6.94V0Z"/>
</svg>