<?xml version="1.0" encoding="UTF-8"?>
<svg id="Layer_1" data-name="Layer 1" xmlns="http://www.w3.org/2000/svg" viewBox="0 0 1920 272.09">
  <defs>
    <style>
      .cls-1 {
        fill: #f5f5f4;
        stroke-width: 0px;
      }
    </style>
  </defs>
  <path class="cls-1" d="m1700.75,190.78c-.24.01-.47.03-.71.06l-216.3,24.49c-.57.06-1.12.17-1.68.31l-123.72,31.93c-1.76.45-3.59.51-5.38.16l-144.31-28.06c-.48-.09-.97-.16-1.46-.19l-321.53-22.97c.62-14.95,1.03-33.55.91-42.45,2.74,3.96,5.5,8.23,7.49,13.03.8,1.93,2.49,3.23,4.51,3.48.81.11,1.67.16,2.37-.19,4.79-2.38,3.62-6.46,2.62-8.9-2.8-6.14-6.52-11.6-10.22-16.91-2.59-3.72-5.26-7.56-7.49-11.55-.29-5.48-.66-11.55-1.15-18.5,3.79,6.47,6.51,12.21,8.5,17.97.66,1.93,2.22,3.31,4.15,3.68,2.01.37,4.13-.38,5.41-1.91,1.22-1.46,1.55-3.39.89-5.29-5.04-14.57-14.04-27.77-20.64-37.42-.34-4.62-.62-8.58-.86-12.29,3.16,6.45,5.52,12.28,7.19,17.78.59,1.96,2.02,3.33,3.93,3.78,1.96.46,4.11-.21,5.48-1.73,1.3-1.45,1.72-3.4,1.13-5.35-4.17-13.72-11.14-26.09-17.88-38.05l-1.15-2.05c-.31-2.55-2.21-4.46-4.72-4.77-2.81-.61-5.68,1.12-6.53,3.96l-.75,2.52c-3.41,11.43-6.92,23.24-11.84,34.27-.67,1.51-.7,3.15-.07,4.62.57,1.33,1.64,2.44,2.94,3.04,1.32.63,2.76.7,4.05.2,1.28-.49,2.32-1.5,2.92-2.84,1.58-3.54,3.09-7.28,4.59-11.4.25,3.53.5,6.84.72,9.79-2.18,5.16-4.46,10.37-6.66,15.42l-.07.16c-2.48,5.68-5.05,11.55-7.54,17.5-.64,1.54-.63,3.2.04,4.67.6,1.33,1.71,2.43,3.03,3.01,1.34.59,2.76.64,4.01.13,1.25-.51,2.24-1.53,2.82-2.9,1.92-4.58,3.87-9.11,6.15-14.36.47,6.64.81,12.18,1.08,17.28-2.94,4.56-5.32,9.38-7.63,14.05-2.52,5.09-5.12,10.35-8.33,15.01-1.72,2.5-1.19,5.6,1.25,7.37,1.28.93,2.89,1.3,4.43,1.04,1.47-.26,2.71-1.08,3.6-2.38,2.84-4.14,5.14-8.5,7.38-12.98.07,7.59-.71,24.56-1.61,39.64l-50.38-3.6c1.37-16.09,2.61-33.74,2.95-42.99.89,1.49,1.76,2.98,2.62,4.45l.08.15c2,3.4,4.07,6.92,6.21,10.32,1.69,2.69,4.97,3.38,7.64,1.63,2.61-1.72,3.32-5.01,1.66-7.65-2.01-3.2-3.97-6.51-5.87-9.72l-.29-.48c-3.64-6.15-7.39-12.51-11.7-18.45.02-6.8-.07-13.57-.25-20.65,2.82,4.33,5.72,8.95,8.24,13.64.94,1.76,2.57,2.79,4.47,2.84,2.09-.07,3.95-1.15,4.97-2.87,1.02-1.72,1.05-3.82.08-5.62-3.47-6.47-7.52-12.64-11.43-18.6-2.24-3.42-4.78-7.28-7.15-11.17-.3-6.13-.65-12.39-1.07-19.1,2.75,4.46,5.51,8.54,8.43,12.43,2.16,2.88,5.79,2.77,8.06,1,1.15-.91,1.88-2.15,2.05-3.51.18-1.36-.21-2.76-1.09-3.93-6.82-9.09-13.11-19.71-19.24-32.47l-.9-12.01c1.21,1.79,2.43,3.57,3.62,5.29l.15.21c2.07,2.99,4.41,6.37,6.59,9.79,1.14,1.8,2.97,2.74,4.82,2.55,2.02-.11,3.91-1.36,4.81-3.18.86-1.74.74-3.72-.34-5.42-2.16-3.4-4.49-6.73-6.8-10.02-5.65-8.07-10.99-15.7-14.21-24.68-.78-2.18-2.85-3.72-5.15-3.82-2.15-.1-4.05,1.08-4.96,3.06l-.28.6c-5.12,11.07-10.41,22.52-18.73,30.88-1.05,1.05-1.63,2.43-1.63,3.87,0,1.44.57,2.83,1.61,3.92,2.24,2.33,5.62,2.39,7.85.14,4.06-4.08,7.82-9.12,11.48-15.38l1.26,17.17c-2.3,5.66-5.9,10.6-9.72,15.84-3.24,4.45-6.59,9.04-9.13,14.19-.9,1.83-.8,3.92.27,5.59,1.12,1.75,3.28,2.88,5.09,2.67,1.89-.11,3.49-1.2,4.38-3,2.38-4.83,5.62-9.35,8.77-13.73.56-.78,1.13-1.56,1.69-2.35.46,7.01.85,13.54,1.19,19.91-.32.44-.58.93-.77,1.44-3.5,9.43-10.62,16.95-17.51,24.22l-2.32,2.46c-2.14,2.28-2.05,5.67.21,7.9,1.09,1.08,2.48,1.66,3.91,1.64.02,0,.04,0,.06,0,1.41-.03,2.74-.65,3.77-1.74l1.05-1.12c4.25-4.54,8.65-9.22,12.49-14.34.27,8.23.4,15.84.4,23.2-.07.11-.13.21-.19.33-2.72,5.34-6.64,9.78-10.78,14.49-3.58,4.06-7.28,8.26-10.23,13.18-1.03,1.72-1.11,3.67-.21,5.37.94,1.79,2.86,2.98,4.9,3.03,2,0,3.75-.96,4.8-2.7,2.65-4.42,6-8.24,9.61-12.35.6-.69,1.2-1.37,1.81-2.07-.52,15.99-1.74,30.73-3.69,44.9l-41.3-2.95c-.19-7.18-.49-14.75-.91-22.94,2.96,2.94,5.99,5.96,8.79,9.07.99,1.1,2.29,1.72,3.67,1.77,1.37.06,2.73-.48,3.81-1.5,1.04-.99,1.72-2.37,1.85-3.81.15-1.59-.36-3.13-1.46-4.34-3.13-3.48-6.47-6.8-9.75-10.05-2.61-2.6-5.32-5.29-7.88-8.03l-1.18-19.26c2.32,3.25,4.48,6.56,6.43,9.87,1.02,1.75,2.72,2.73,4.62,2.69,1.93.1,3.89-1.13,4.93-3.04.94-1.75.89-3.76-.15-5.52-4.66-7.92-10.38-15.72-16.99-23.19-.21-3.82-.41-7.62-.58-11.32,1.18,2.06,2.37,4.1,3.54,6.12l.21.37c1.26,2.17,2.52,4.34,3.76,6.52.99,1.75,2.66,2.76,4.57,2.75.02,0,.03,0,.05,0,1.93-.05,3.93-1.26,4.89-2.97.98-1.75.95-3.78-.06-5.56-1.32-2.34-2.69-4.66-4.05-6.98l-.24-.41c-4.63-7.89-9.41-16.05-12.82-24.62-.86-2.16-3.06-3.7-5.38-3.74-2.21.09-3.88,1.21-4.73,3.15-1.65,3.83-3.56,7.67-5.44,11.43-3.84,7.71-7.82,15.68-9.98,24.48-.49,1.99.03,3.92,1.42,5.3,1.43,1.42,3.61,1.98,5.56,1.43,1.87-.55,3.21-2,3.7-3.98.89-3.61,2.19-7.34,4.06-11.63.17,3.67.36,7.39.57,11.09-2.02,6.36-5.41,12.01-9.04,18.04-1.7,2.84-3.46,5.78-5.06,8.78-.96,1.8-.92,3.82.09,5.51,1.05,1.76,3.01,2.86,5.03,2.81,1.93-.05,3.58-1.11,4.53-2.91,1.53-2.88,3.24-5.77,4.89-8.56l.52-.88c.13-.22.26-.44.4-.67l.02.4c.32,5.13.64,10.27.95,15.4-2.89,6.98-6.96,13.16-11.27,19.7l-.23.35c-1.3,1.98-2.65,4.04-3.94,6.08-1.06,1.67-1.18,3.61-.34,5.31.89,1.79,2.79,3.01,4.84,3.12,2.03.04,3.85-.93,4.91-2.61,1.31-2.07,2.63-4.09,4.1-6.33,1.02-1.55,2.06-3.12,3.08-4.72.29,6.07.51,11.77.66,17.21l-153.73-10.98c-.91-.06-1.82-.03-2.72.11l-183.62,28.25c-1.16.18-2.34.19-3.51.03l-281.79-38.52c-1.11-.15-2.23-.15-3.34,0L0,184.76v87.33h1920v-93.25l-219.25,11.93Z"/>
</svg>