<?xml version="1.0" encoding="UTF-8"?>
<svg id="Layer_1" data-name="Layer 1" xmlns="http://www.w3.org/2000/svg" viewBox="0 0 1920 125.83">
  <defs>
    <style>
      .cls-1 {
        fill: #dfeab0;
        stroke-width: 0px;
      }
    </style>
  </defs>
  <path class="cls-1" d="m1920,0H0v54.27l156.82-26.37c1.11-.19,2.23-.19,3.34,0l281.79,46.26c1.16.19,2.35.18,3.51-.04l183.62-33.93c.9-.17,1.81-.21,2.72-.13l601.15,51.57c.49.04.98.12,1.46.23l144.31,33.7c1.78.42,3.62.35,5.38-.2l123.72-38.35c.55-.17,1.11-.29,1.68-.37l216.3-29.41c.24-.03.47-.06.71-.07l193.51-12.65V0Z"/>
</svg>