<?xml version="1.0" encoding="UTF-8"?>
<svg id="Layer_1" data-name="Layer 1" xmlns="http://www.w3.org/2000/svg" viewBox="0 0 1920 121.58">
  <defs>
    <style>
      .cls-1 {
        fill: #f5f5f4;
        stroke-width: 0px;
      }
    </style>
  </defs>
  <path class="cls-1" d="m1920,81.32h-30.94c-47.3,0-94.19-11.17-138.29-32.94l-86.28-42.6c-16.04-7.92-33.85-7.68-49.76.66l-69.23,36.32c-4.61,2.42-9.42,4.18-14.34,5.24l-136.12,29.34c-12.32,2.66-24.42,6.82-36.11,12.43l-4.33,2.08c-21.23,10.18-43.73,15.4-66.41,15.4h-6.53c-27.54,0-54.94-4.9-81.41-14.56l-57.53-21c-11.01-4.02-22.65-4.38-33.81-1.04l-70.21,21.02c-11.88,3.56-24.29,2.92-35.9-1.85l-7.08-2.91c-19.93-8.18-40.72-12.5-61.66-12.82l-36.04-.55c-4.49-.07-8.97-.71-13.36-1.92l-17.44-4.8c-27.6-7.59-55.69-11.97-83.91-13.08l-77.64-3.04c-6.11-.24-12.17-1.54-18.01-3.88l-69.55-27.8c-14.08-5.63-29.23-5.18-43.08,1.27l-78.44,36.51c-6.04,2.81-12.36,4.5-18.78,5.02l-51.2,4.12c-6.03.49-11.97,2-17.68,4.52l-33.98,14.97c-32.78,14.44-67.22,21.81-101.9,21.81H0v14.35h1920v-40.26Z"/>
</svg>