<?xml version="1.0" encoding="UTF-8"?><svg id="Layer_1" xmlns="http://www.w3.org/2000/svg" viewBox="0 0 1920 108.07"><defs><style>.cls-1{fill:#d7df79;}</style></defs><path class="cls-1" d="m1920,70.5h-4.68c-47.3,0-94.19-9.68-138.29-28.56l-86.28-36.93c-16.04-6.86-33.85-6.66-49.76.57l-69.23,31.48c-4.61,2.1-9.42,3.62-14.34,4.54l-136.12,25.43c-12.32,2.3-24.42,5.91-36.11,10.78l-4.33,1.8c-21.23,8.83-43.73,13.35-66.41,13.35h-6.53c-27.54,0-54.94-4.25-81.41-12.62l-57.53-18.2c-11.01-3.48-22.65-3.79-33.81-.9l-70.21,18.22c-11.88,3.08-24.29,2.53-35.9-1.6l-7.08-2.52c-19.93-7.09-40.72-10.84-61.66-11.11l-36.04-.47c-4.49-.06-8.97-.62-13.36-1.66l-17.44-4.16c-27.6-6.58-55.69-10.38-83.91-11.34l-77.64-2.64c-6.11-.21-12.17-1.34-18.01-3.36l-69.55-24.1c-14.08-4.88-29.23-4.49-43.08,1.1l-78.44,31.65c-6.04,2.44-12.36,3.9-18.78,4.35l-51.2,3.57c-6.03.42-11.97,1.74-17.68,3.92l-33.98,12.98c-32.78,12.51-67.22,18.9-101.9,18.9H0v15.11h1920v-37.58Z"/></svg>