<?xml version="1.0" encoding="UTF-8"?><svg id="Layer_1" xmlns="http://www.w3.org/2000/svg" viewBox="0 0 1920 159.61"><defs><style>.cls-1{fill:#d7df79;}</style></defs><path class="cls-1" d="m1920,0H0v124.86c33.84,2.71,140.95,6.04,288.29-40.2,1.74-.55,3.47-1.17,5.16-1.89,10.67-4.48,64.48-23.68,158.3-1.07,104.67,25.23,187.8,72.84,306.3,20.72,1.21-.53,14.69-8.51,27.17-11.13,6.25-1.31,27.6-11.3,112.83,10.92,97.4,25.4,129.28-1.95,217.83,16.61,88.55,18.56,249.79-5.38,312.58,18.56,36.3,13.84,66.4,20.35,92.14,22.24h32.07c63.52-4.88,98.16-37.71,146.88-35.58,75.57,3.29,162.48-3.68,220.45-9.87V0Z"/></svg>