<?xml version="1.0" encoding="UTF-8"?><svg id="Layer_1" xmlns="http://www.w3.org/2000/svg" viewBox="0 0 1920 90.86"><defs><style>.cls-1{fill:#f9f9f9;}</style></defs><path class="cls-1" d="m1730.72.11l-273.61,37.4c-1.13.15-2.28.14-3.4-.03l-178.29-27.43c-.87-.13-1.76-.17-2.64-.11l-583.71,41.69c-.48.03-.95.1-1.42.19l-140.12,27.25c-1.73.34-3.51.28-5.22-.16l-120.13-31c-.53-.14-1.08-.24-1.63-.3l-210.02-23.78c-.23-.03-.46-.05-.69-.06L0,12.36v78.5h1920V26.16L1733.97.11c-1.08-.15-2.17-.15-3.25,0Z"/></svg>