<?xml version="1.0" encoding="UTF-8"?><svg id="Layer_1" xmlns="http://www.w3.org/2000/svg" viewBox="0 0 1920 105.97"><defs><style>.cls-1{fill:#f9f9f9;}</style></defs><path class="cls-1" d="m120.08,101.24l163.03-28.6c41.4-7.26,83.74-7.48,125.22-.65l117.25,19.33c.93.15,1.87.19,2.8.13l401.05-29.78,232.41-7.95c.46-.02.93-.06,1.39-.13l101.22-15.48c44.66-6.83,90.14-6.32,134.63,1.52l140.99,24.84c.68.12,1.37.18,2.05.18h139.4c.68,0,1.36.06,2.03.18l236.45,41.14V0H0v90.74l116.96,10.63c1.04.09,2.09.05,3.12-.13Z"/></svg>