<svg id="visual" viewBox="0 0 1890 300" width="1890" height="300" xmlns="http://www.w3.org/2000/svg" xmlns:xlink="http://www.w3.org/1999/xlink" version="1.1"><path d="M0 90L24.2 106.8C48.3 123.7 96.7 157.3 145.2 162.8C193.7 168.3 242.3 145.7 290.8 148C339.3 150.3 387.7 177.7 436.2 181C484.7 184.3 533.3 163.7 581.8 158.3C630.3 153 678.7 163 727 150.8C775.3 138.7 823.7 104.3 872.2 112.8C920.7 121.3 969.3 172.7 1017.8 190.7C1066.3 208.7 1114.7 193.3 1163 189.2C1211.3 185 1259.7 192 1308.2 186.2C1356.7 180.3 1405.3 161.7 1453.8 167.5C1502.3 173.3 1550.7 203.7 1599.2 204.2C1647.7 204.7 1696.3 175.3 1744.8 147.2C1793.3 119 1841.7 92 1865.8 78.5L1890 65L1890 301L1865.8 301C1841.7 301 1793.3 301 1744.8 301C1696.3 301 1647.7 301 1599.2 301C1550.7 301 1502.3 301 1453.8 301C1405.3 301 1356.7 301 1308.2 301C1259.7 301 1211.3 301 1163 301C1114.7 301 1066.3 301 1017.8 301C969.3 301 920.7 301 872.2 301C823.7 301 775.3 301 727 301C678.7 301 630.3 301 581.8 301C533.3 301 484.7 301 436.2 301C387.7 301 339.3 301 290.8 301C242.3 301 193.7 301 145.2 301C96.7 301 48.3 301 24.2 301L0 301Z" ></path></svg>