<svg id="visual" viewBox="0 0 1830 100" width="1830" height="100" xmlns="http://www.w3.org/2000/svg" xmlns:xlink="http://www.w3.org/1999/xlink" version="1.1"><path d="M0 25L96 42L193 30L289 43L385 45L482 41L578 24L674 26L771 25L867 34L963 22L1059 28L1156 41L1252 23L1348 37L1445 38L1541 30L1637 23L1734 29L1830 32L1830 0L1734 0L1637 0L1541 0L1445 0L1348 0L1252 0L1156 0L1059 0L963 0L867 0L771 0L674 0L578 0L482 0L385 0L289 0L193 0L96 0L0 0Z" fill="#e6ebb4" stroke-linecap="square" stroke-linejoin="bevel"></path></svg>