<?xml version="1.0" encoding="UTF-8"?><svg id="Layer_1" xmlns="http://www.w3.org/2000/svg" viewBox="0 0 751.18 141.73"><defs><style>.cls-1{fill:#000;}</style></defs><path class="cls-1" d="M117.01,30.12c-4.4-7.78-11.87-13.22-22.78-16.61C74.16,8.26,67.28,2.38,58.63,0,38.37-.38,27.65,13.17,18.92,28.19-10.07,72.52-1.18,141.73,56.13,141.73c48.21-3.05,96.46-64.17,60.89-111.61Zm-32.59,32.52l3.42-1.71c.67-.34,1.5-.09,1.88,.55l18.11,30.18c-1.26,3.14-2.75,6.2-4.45,9.15l-24.01-20.88,5.05-17.28Zm-8.72,14.09l-11.25-9.78c-1.11-.96-2.48-1.45-3.85-1.45s-2.66,.46-3.75,1.37l-7.53,6.28-5.04-2.16,19.19-23.62c.26-.32,.63-.51,1.05-.53,.4-.02,.8,.13,1.1,.42l14.48,14.48-4.39,15Zm-9.25-57.21c40.86-.6,53.07,35.72,43.21,67.04l-16.14-27.35c-1.57-2.61-4.93-3.59-7.65-2.23l-2.86,1.43-14.28-14.28c-1.17-1.17-2.78-1.8-4.45-1.71-1.66,.08-3.2,.87-4.25,2.16l-19.99,24.6c-2.37-.86-5.05-.1-6.62,1.92l-15.05,19.35c-2.5-31.83,14.84-70.87,48.07-70.94Zm-12.77,111.33c-20.12,.32-31.3-14.9-34.54-34.18l17.78-22.86c.4-.52,1.11-.7,1.71-.44l9.42,4.04,11.29,24.2,1.01,2.25c.2,.56,.6,1,1.13,1.26,.3,.14,.63,.22,.95,.22,.25,0,.5-.04,.74-.13,.56-.2,1-.6,1.26-1.13,.25-.53,.29-1.13,.08-1.71l-.48-1.17-11.61-24.87,7.26-6.05c.55-.45,1.33-.45,1.87,.02l38.92,33.86,.14,.12h.64c-10.02,15.11-26.23,26.24-47.57,26.58Z"/></svg>