<?xml version="1.0" encoding="utf-8"?>
<!-- Generator: Adobe Illustrator 15.0.0, SVG Export Plug-In  -->
<!DOCTYPE svg PUBLIC "-//W3C//DTD SVG 1.1//EN" "http://www.w3.org/Graphics/SVG/1.1/DTD/svg11.dtd" [
	<!ENTITY ns_flows "http://ns.adobe.com/Flows/1.0/">
]>
<svg version="1.1"
	 xmlns="http://www.w3.org/2000/svg" xmlns:xlink="http://www.w3.org/1999/xlink" xmlns:a="http://ns.adobe.com/AdobeSVGViewerExtensions/3.0/"
	 x="0px" y="0px" width="612px" height="792px" viewBox="-2.3 -338.3 612 792" enable-background="new -2.3 -338.3 612 792"
	 xml:space="preserve">
<defs>
</defs>
<path d="M93,24.5c-3.6-6.3-9.7-10.8-18.6-13.5c-16.4-4.3-22-9.1-29-11C29-0.3,20.2,10.7,13.1,23c-23.6,36.1-16.4,92.5,30.3,92.5
	C82.7,113,122,63.2,93,24.5L93,24.5z M66.5,51l2.8-1.4c0.5-0.3,1.2-0.1,1.5,0.4l14.8,24.6c-1,2.6-2.2,5.1-3.6,7.5l-19.6-17L66.5,51
	L66.5,51z M59.4,62.5l-9.2-8c-0.9-0.8-2-1.2-3.1-1.2s-2.2,0.4-3.1,1.1l-6.1,5.1l-4.1-1.8l15.6-19.2c0.2-0.3,0.5-0.4,0.9-0.4
	c0.3,0,0.7,0.1,0.9,0.3L63,50.3L59.4,62.5L59.4,62.5z M51.8,15.9C85.1,15.4,95.1,45,87,70.5L73.9,48.2c-1.3-2.1-4-2.9-6.2-1.8
	l-2.3,1.2L53.7,36c-1-1-2.3-1.5-3.6-1.4c-1.4,0.1-2.6,0.7-3.5,1.8l-16.3,20c-1.9-0.7-4.1-0.1-5.4,1.6L12.7,73.7
	C10.6,47.8,24.8,16,51.8,15.9L51.8,15.9z M41.4,106.6C25,106.9,15.9,94.5,13.3,78.8l14.5-18.6c0.3-0.4,0.9-0.6,1.4-0.4l7.7,3.3
	L46,82.8l0.8,1.8c0.2,0.5,0.5,0.8,0.9,1c0.2,0.1,0.5,0.2,0.8,0.2c0.2,0,0.4,0,0.6-0.1c0.5-0.2,0.8-0.5,1-0.9
	c0.2-0.4,0.2-0.9,0.1-1.4l-0.4-1l-9.5-20.3l5.9-4.9c0.4-0.4,1.1-0.4,1.5,0l31.7,27.6l0.1,0.1h0.5C72,97.3,58.8,106.3,41.4,106.6
	L41.4,106.6z"/>
</svg>
