<?xml version="1.0" encoding="UTF-8"?><svg id="Layer_1" xmlns="http://www.w3.org/2000/svg" xmlns:xlink="http://www.w3.org/1999/xlink" viewBox="0 0 1890 321.65"><defs><style>.cls-1{fill:none;}.cls-2{clip-path:url(#clippath);}.cls-3{fill:#e6ebb4;}</style><clipPath id="clippath"><rect class="cls-1" y="0" width="1890" height="321.65"/></clipPath></defs><g class="cls-2"><path class="cls-3" d="M-27.53,149.56l62.84,5.93c4.32,.41,8.68,.32,12.99-.25l90.06-12.01c14.14-1.89,28.38-2.83,42.65-2.83h70.53c2.38,0,4.76-.15,7.13-.44l68.13-8.52c42.89-5.36,86.08-8.05,129.31-8.05h128.27c2.94,0,5.87-.23,8.77-.67l51.81-8c69.42-10.72,140.1-10.39,209.41,.99l70.72,11.61,450.49,62.21c65.98,9.11,132.52,13.68,199.13,13.68h329.17v118.44H-27.53V149.56Z"/><path class="cls-3" d="M1402.49,218.68l.93-17.09c.85-8.4,1.2-17.35,1.08-27.26,2.01,2.9,4.03,6.03,5.49,9.55,.59,1.41,1.82,2.37,3.31,2.55,.59,.08,1.22,.12,1.74-.14,3.51-1.75,2.65-4.73,1.92-6.52-2.05-4.5-4.78-8.5-7.49-12.39-1.9-2.73-3.86-5.54-5.49-8.47-.21-4.02-.49-8.46-.84-13.55,2.78,4.74,4.77,8.95,6.23,13.17,.49,1.42,1.62,2.42,3.04,2.69,1.47,.27,3.03-.28,3.96-1.4,.89-1.07,1.13-2.49,.65-3.88-3.69-10.68-10.29-20.35-15.13-27.42-.25-3.38-.45-6.29-.63-9.01,2.32,4.73,4.04,9,5.27,13.03,.43,1.43,1.48,2.44,2.88,2.77,1.44,.34,3.01-.16,4.01-1.27,.96-1.06,1.26-2.49,.82-3.92-3.05-10.05-8.16-19.12-13.1-27.88l-.85-1.5c-.22-1.87-1.62-3.27-3.46-3.5-2.06-.45-4.17,.82-4.79,2.9l-.55,1.84c-2.5,8.37-5.07,17.03-8.68,25.12-.49,1.11-.51,2.31-.05,3.39,.42,.97,1.2,1.79,2.15,2.23,.97,.46,2.02,.51,2.97,.15,.94-.36,1.7-1.1,2.14-2.08,1.16-2.59,2.26-5.33,3.36-8.35,.18,2.59,.36,5.01,.53,7.17-1.6,3.78-3.27,7.6-4.88,11.3l-.05,.12c-1.82,4.16-3.7,8.47-5.53,12.82-.47,1.13-.46,2.34,.03,3.42,.44,.97,1.25,1.78,2.22,2.21,.98,.43,2.03,.47,2.94,.09,.91-.37,1.64-1.12,2.06-2.12,1.41-3.36,2.84-6.68,4.51-10.52,.34,4.87,.6,8.92,.79,12.66-2.15,3.34-3.9,6.88-5.59,10.3-1.84,3.73-3.75,7.58-6.11,11-1.26,1.84-.88,4.11,.92,5.4,.94,.68,2.12,.96,3.25,.76,1.07-.19,1.98-.79,2.64-1.74,2.08-3.03,3.77-6.23,5.41-9.51,.08,9.6-6.12,46.71-7.02,54.84-12.54-.13-19.62-17.85-32.1-16.59,1.48-10.51,2.74-31.52,3.18-43.33,.65,1.09,1.29,2.18,1.92,3.26l.06,.11c1.47,2.49,2.98,5.07,4.55,7.56,1.24,1.97,3.64,2.48,5.6,1.19,1.91-1.26,2.43-3.67,1.22-5.61-1.47-2.35-2.91-4.77-4.3-7.12l-.21-.35c-2.67-4.51-5.42-9.17-8.58-13.52,.01-4.98-.05-9.95-.18-15.14,2.07,3.18,4.19,6.56,6.04,9.99,.69,1.29,1.88,2.05,3.28,2.08,1.53-.05,2.9-.84,3.64-2.11,.74-1.26,.77-2.8,.06-4.12-2.55-4.74-5.51-9.26-8.37-13.63-1.64-2.5-3.51-5.34-5.24-8.19-.22-4.49-.48-9.08-.79-13.99,2.01,3.27,4.04,6.26,6.17,9.11,1.59,2.11,4.25,2.03,5.91,.73,.84-.66,1.37-1.58,1.5-2.57,.13-1-.16-2.02-.8-2.88-4.99-6.66-9.61-14.44-14.1-23.8l-.66-8.8c.88,1.31,1.78,2.61,2.66,3.88l.11,.16c1.52,2.19,3.23,4.67,4.83,7.18,.84,1.32,2.18,2.01,3.54,1.87,1.48-.08,2.86-1,3.52-2.33,.63-1.28,.54-2.73-.25-3.97-1.58-2.49-3.29-4.93-4.98-7.35-4.14-5.91-8.06-11.5-10.42-18.09-.57-1.6-2.09-2.73-3.77-2.8-1.58-.07-2.97,.79-3.64,2.24l-.21,.44c-3.75,8.11-7.63,16.5-13.73,22.63-.77,.77-1.19,1.78-1.2,2.84,0,1.05,.42,2.07,1.18,2.87,1.64,1.71,4.12,1.75,5.75,.1,2.97-2.99,5.73-6.68,8.41-11.27l.93,12.59c-1.68,4.15-4.32,7.77-7.12,11.61-2.38,3.26-4.83,6.63-6.69,10.4-.66,1.34-.59,2.87,.2,4.09,.82,1.29,2.4,2.11,3.73,1.96,1.39-.08,2.56-.88,3.21-2.2,1.75-3.54,4.12-6.85,6.43-10.06,.41-.57,.82-1.14,1.24-1.72,.34,5.14,.62,9.92,.88,14.59-.24,.33-.43,.68-.57,1.06-2.56,6.91-7.78,12.42-12.83,17.75l-1.7,1.8c-1.57,1.67-1.5,4.16,.15,5.79,.8,.79,1.82,1.22,2.87,1.2,.01,0,.03,0,.05,0,1.03-.02,2.01-.48,2.76-1.27l.77-.82c3.12-3.32,6.34-6.75,9.15-10.51,.2,6.03,.29,11.61,.29,17.01-.05,.08-.1,.16-.14,.24-1.99,3.91-4.86,7.17-7.9,10.62-2.62,2.98-5.33,6.06-7.49,9.66-.75,1.26-.81,2.69-.15,3.94,.69,1.31,2.1,2.18,3.59,2.22,1.46,0,2.75-.7,3.52-1.98,1.94-3.24,4.4-6.04,7.04-9.05,.44-.5,.88-1.01,1.32-1.52-.42,12.84-1.44,24.59-3.13,35.88l-.04,.25c-1,.13-2,.23-2.99,.36-8.95,1.2-17.85,2.75-26.68,4.64v-4.27c-.11-7.05-.37-14.56-.8-22.94,2.17,2.15,4.39,4.37,6.44,6.64,.72,.8,1.68,1.26,2.69,1.3,1.01,.04,2-.35,2.79-1.1,.76-.72,1.26-1.74,1.36-2.79,.11-1.16-.27-2.29-1.07-3.18-2.3-2.55-4.74-4.98-7.15-7.37-1.92-1.91-3.9-3.87-5.78-5.88l-.87-14.12c1.7,2.38,3.28,4.81,4.71,7.23,.75,1.28,1.99,2,3.39,1.97,1.41,.07,2.85-.83,3.61-2.23,.69-1.28,.65-2.75-.11-4.04-3.42-5.8-7.6-11.52-12.45-17-.16-2.8-.3-5.59-.42-8.29,.86,1.51,1.73,3.01,2.59,4.49l.16,.27c.92,1.59,1.85,3.18,2.76,4.78,.73,1.29,1.95,2.02,3.35,2.02,.01,0,.02,0,.04,0,1.41-.03,2.88-.93,3.58-2.18,.71-1.28,.7-2.77-.04-4.08-.97-1.71-1.97-3.41-2.97-5.12l-.18-.3c-3.39-5.78-6.9-11.76-9.4-18.04-.63-1.59-2.24-2.71-3.94-2.74-1.62,.07-2.85,.89-3.46,2.31-1.21,2.81-2.61,5.62-3.98,8.38-2.82,5.65-5.73,11.49-7.31,17.94-.36,1.46,.02,2.87,1.04,3.88,1.05,1.04,2.65,1.45,4.07,1.05,1.37-.4,2.35-1.46,2.71-2.92,.65-2.65,1.6-5.38,2.98-8.52,.12,2.69,.27,5.42,.42,8.12-1.48,4.66-3.97,8.8-6.63,13.22-1.25,2.08-2.54,4.24-3.71,6.44-.7,1.32-.68,2.8,.07,4.04,.77,1.29,2.21,2.09,3.69,2.06,1.41-.04,2.62-.82,3.32-2.13,1.12-2.11,2.37-4.23,3.58-6.27l.38-.64c.1-.16,.19-.33,.29-.49l.02,.3c.24,3.76,.47,7.53,.7,11.29-2.12,5.11-5.1,9.64-8.26,14.43l-.17,.26c-.95,1.45-1.94,2.96-2.89,4.46-.78,1.23-.87,2.64-.25,3.89,.65,1.31,2.04,2.21,3.55,2.29,1.49,.03,2.82-.68,3.6-1.91,.96-1.52,1.93-3,3.01-4.64,.75-1.14,1.51-2.29,2.26-3.46,.34,7.15,.55,13.6,.64,19.67v5.72c-1.4,.33-2.79,.7-4.19,1.06,1.5,2.58,2.86,5.23,4.09,7.94,9.14-2.26,18.36-4.16,27.65-5.65,22.75-3.64,43.82,41.78,66.82,42.89,3.73,.18-2.58,51.69,0,0,.14-2.8-9.53-8.52-8.3-11.04-2.22,1.02,7.84-11.33,4.82-11.41-5.52-.14,.08-12.46-.13-16.75Z"/><path class="cls-3" d="M1579.12,259.42l-10.86-13.04c1.16-11.52,2.19-47.65,2.02-61.24,2.75,3.98,5.53,8.27,7.53,13.1,.81,1.94,2.5,3.25,4.54,3.5,.81,.11,1.67,.16,2.39-.19,4.82-2.4,3.64-6.5,2.63-8.95-2.81-6.17-6.56-11.66-10.27-17-2.6-3.74-5.29-7.6-7.54-11.62-.29-5.51-.67-11.61-1.16-18.6,3.81,6.5,6.54,12.28,8.55,18.07,.67,1.94,2.23,3.32,4.17,3.7,2.02,.37,4.15-.38,5.44-1.93,1.23-1.47,1.56-3.41,.9-5.32-5.07-14.65-14.12-27.92-20.76-37.63-.34-4.64-.62-8.63-.87-12.36,3.18,6.48,5.55,12.34,7.22,17.88,.6,1.97,2.04,3.35,3.95,3.8,1.97,.46,4.13-.22,5.51-1.74,1.31-1.46,1.72-3.41,1.13-5.38-4.19-13.79-11.2-26.23-17.98-38.26l-1.16-2.06c-.31-2.56-2.22-4.49-4.75-4.8-2.83-.62-5.72,1.13-6.57,3.98l-.75,2.53c-3.42,11.49-6.96,23.37-11.91,34.46-.68,1.52-.7,3.17-.07,4.65,.57,1.34,1.65,2.45,2.95,3.06,1.33,.63,2.78,.7,4.07,.21,1.29-.49,2.33-1.5,2.93-2.85,1.59-3.56,3.1-7.32,4.61-11.46,.25,3.55,.5,6.88,.72,9.84-2.19,5.19-4.48,10.43-6.7,15.5l-.07,.16c-2.5,5.71-5.08,11.62-7.58,17.59-.65,1.55-.63,3.22,.04,4.69,.61,1.34,1.72,2.44,3.05,3.03,1.35,.59,2.78,.64,4.03,.13,1.25-.51,2.26-1.54,2.83-2.91,1.93-4.61,3.9-9.16,6.19-14.44,.47,6.68,.82,12.24,1.09,17.37-2.95,4.59-5.35,9.43-7.67,14.13-2.53,5.11-5.15,10.4-8.38,15.1-1.73,2.52-1.2,5.63,1.26,7.41,1.29,.93,2.91,1.31,4.45,1.04,1.47-.26,2.72-1.09,3.62-2.39,2.86-4.16,5.17-8.55,7.42-13.05,.11,13.17-2.28,54.41-3.51,65.57-17.21-.17-34.63-1.73-51.75,0,2.03-14.42,5.36-56.35,5.96-72.55,.89,1.5,1.77,2.99,2.64,4.47l.08,.15c2.01,3.42,4.09,6.96,6.24,10.38,1.7,2.7,5,3.4,7.68,1.63,2.62-1.73,3.34-5.04,1.67-7.69-2.02-3.22-4-6.55-5.9-9.77l-.29-.48c-3.66-6.19-7.43-12.58-11.77-18.55,.02-6.84-.07-13.65-.25-20.77,2.83,4.36,5.75,9,8.28,13.71,.95,1.77,2.58,2.81,4.5,2.85,2.1-.07,3.97-1.16,4.99-2.89,1.02-1.73,1.05-3.84,.08-5.65-3.49-6.51-7.56-12.71-11.49-18.7-2.26-3.43-4.81-7.32-7.19-11.23-.3-6.16-.66-12.46-1.08-19.2,2.76,4.49,5.54,8.59,8.47,12.5,2.18,2.9,5.83,2.78,8.1,1,1.15-.91,1.89-2.17,2.06-3.53,.18-1.37-.21-2.77-1.1-3.95-6.85-9.14-13.18-19.82-19.35-32.65l-.91-12.07c1.21,1.8,2.45,3.59,3.64,5.32l.15,.21c2.08,3,4.44,6.41,6.62,9.85,1.15,1.81,2.98,2.76,4.85,2.56,2.03-.12,3.93-1.37,4.84-3.2,.87-1.75,.74-3.74-.35-5.45-2.17-3.42-4.52-6.77-6.83-10.08-5.68-8.12-11.05-15.78-14.29-24.82-.78-2.19-2.86-3.74-5.18-3.84-2.17-.1-4.07,1.09-4.99,3.08l-.29,.61c-5.15,11.13-10.47,22.64-18.83,31.05-1.05,1.06-1.64,2.44-1.64,3.89,0,1.45,.57,2.84,1.62,3.94,2.25,2.34,5.65,2.4,7.89,.14,4.08-4.1,7.86-9.17,11.54-15.46l1.27,17.27c-2.31,5.7-5.93,10.66-9.77,15.93-3.26,4.47-6.63,9.09-9.18,14.27-.9,1.84-.8,3.94,.27,5.62,1.12,1.76,3.3,2.89,5.12,2.69,1.9-.11,3.51-1.21,4.4-3.02,2.4-4.86,5.65-9.4,8.82-13.8,.56-.78,1.13-1.57,1.7-2.36,.46,7.05,.86,13.61,1.2,20.02-.33,.45-.59,.93-.78,1.45-3.52,9.48-10.68,17.04-17.6,24.36l-2.33,2.47c-2.15,2.29-2.06,5.71,.21,7.94,1.1,1.08,2.49,1.67,3.93,1.65,.02,0,.04,0,.06,0,1.42-.03,2.76-.65,3.79-1.75l1.05-1.13c4.28-4.56,8.7-9.27,12.56-14.42,.27,8.28,.4,15.93,.4,23.33-.07,.11-.13,.22-.19,.34-2.74,5.37-6.67,9.84-10.84,14.57-3.6,4.09-7.32,8.31-10.28,13.25-1.03,1.73-1.11,3.69-.21,5.4,.95,1.8,2.88,2.99,4.93,3.05,2.01,0,3.78-.97,4.83-2.72,2.66-4.44,6.03-8.28,9.67-12.42,.6-.69,1.21-1.38,1.82-2.08-.57,17.62-1.98,33.74-4.29,49.23l-2.6,15.41c-1.37,.17-4.96,3.37-6.32,3.56-12.28,1.65-19.73-14.33-31.84-11.75v-5.86c-.15-9.67-.51-19.98-1.1-31.47,2.97,2.95,6.02,5.99,8.84,9.12,.99,1.1,2.3,1.73,3.69,1.78,1.38,.06,2.75-.48,3.83-1.5,1.05-.99,1.73-2.38,1.86-3.83,.15-1.6-.37-3.15-1.47-4.37-3.15-3.5-6.51-6.84-9.8-10.11-2.63-2.62-5.35-5.32-7.93-8.07l-1.19-19.37c2.34,3.26,4.5,6.6,6.46,9.93,1.03,1.76,2.73,2.74,4.65,2.71,1.94,.1,3.91-1.13,4.95-3.06,.95-1.76,.89-3.78-.15-5.55-4.69-7.96-10.43-15.8-17.08-23.32-.22-3.84-.41-7.66-.58-11.38,1.18,2.07,2.38,4.13,3.56,6.15l.22,.37c1.27,2.18,2.53,4.36,3.78,6.55,1,1.76,2.67,2.77,4.6,2.77,.02,0,.03,0,.05,0,1.94-.05,3.95-1.27,4.91-2.99,.98-1.76,.96-3.8-.06-5.59-1.33-2.35-2.7-4.68-4.07-7.02l-.24-.41c-4.65-7.94-9.46-16.14-12.89-24.75-.86-2.18-3.08-3.72-5.41-3.76-2.22,.09-3.91,1.22-4.75,3.17-1.66,3.86-3.58,7.71-5.47,11.49-3.87,7.75-7.86,15.76-10.03,24.61-.49,2,.03,3.94,1.43,5.33,1.44,1.43,3.63,1.99,5.59,1.43,1.88-.55,3.23-2.01,3.72-4,.89-3.63,2.2-7.38,4.09-11.69,.17,3.69,.36,7.44,.57,11.15-2.03,6.39-5.44,12.08-9.09,18.14-1.71,2.86-3.48,5.81-5.08,8.83-.96,1.81-.93,3.84,.09,5.54,1.05,1.77,3.03,2.87,5.06,2.83,1.94-.05,3.6-1.12,4.55-2.92,1.54-2.9,3.25-5.8,4.91-8.61l.52-.88c.13-.22,.26-.45,.4-.67l.02,.41c.32,5.16,.65,10.33,.96,15.49-2.9,7.01-7,13.23-11.33,19.8l-.23,.35c-1.31,1.99-2.66,4.06-3.96,6.12-1.07,1.68-1.19,3.63-.34,5.34,.9,1.8,2.8,3.03,4.87,3.14,2.04,.04,3.87-.93,4.94-2.63,1.31-2.09,2.65-4.11,4.12-6.36,1.03-1.56,2.07-3.14,3.1-4.74,.47,9.81,.75,18.66,.88,26.99v7.85c-1.92,.46-3.83,.96-5.75,1.45,2.05,3.54,3.92,7.17,5.61,10.89,12.53-3.1,25.19-5.71,37.93-7.75,31.22-5,62.99-6.64,94.54-5.12,5.12,.25,10.22,.63,15.31,1.07,1.7-3.45,3.39,40.22,5.08,36.77-3.05,1.4-3.62-13.48-7.76-13.58-7.58-.19-8.55,5.25-8.83-.64Z"/><path class="cls-3" d="M1716.2,254.7l-7.52-10.73c.87-8.6-.1-27.51-.23-37.66,2.06,2.97,4.13,6.18,5.62,9.78,.6,1.45,1.87,2.42,3.39,2.61,.61,.08,1.25,.12,1.78-.14,3.6-1.79,2.71-4.85,1.96-6.68-2.1-4.61-4.89-8.7-7.67-12.69-1.94-2.79-3.95-5.68-5.62-8.67-.21-4.11-.5-8.67-.86-13.88,2.85,4.85,4.88,9.17,6.38,13.49,.5,1.45,1.66,2.48,3.11,2.76,1.51,.28,3.1-.28,4.06-1.44,.92-1.1,1.16-2.55,.67-3.97-3.78-10.93-10.54-20.84-15.49-28.08-.26-3.46-.47-6.44-.65-9.22,2.37,4.84,4.14,9.21,5.39,13.34,.44,1.47,1.52,2.5,2.95,2.83,1.47,.35,3.09-.16,4.11-1.3,.98-1.09,1.29-2.55,.84-4.01-3.13-10.29-8.36-19.58-13.42-28.55l-.87-1.54c-.23-1.91-1.66-3.35-3.54-3.58-2.11-.46-4.27,.84-4.9,2.97l-.56,1.89c-2.56,8.58-5.2,17.44-8.89,25.72-.51,1.13-.52,2.36-.05,3.47,.43,1,1.23,1.83,2.2,2.28,.99,.47,2.07,.52,3.04,.15,.96-.37,1.74-1.12,2.19-2.13,1.18-2.65,2.32-5.46,3.44-8.55,.19,2.65,.37,5.13,.54,7.35-1.64,3.87-3.35,7.78-5,11.57l-.05,.12c-1.86,4.26-3.79,8.67-5.66,13.13-.48,1.16-.47,2.4,.03,3.5,.45,1,1.29,1.82,2.28,2.26,1.01,.44,2.07,.48,3.01,.09,.93-.38,1.68-1.15,2.11-2.17,1.44-3.44,2.91-6.84,4.62-10.77,.35,4.99,.61,9.14,.81,12.96-2.2,3.42-4,7.04-5.73,10.54-1.89,3.82-3.84,7.76-6.25,11.27-1.29,1.88-.9,4.2,.94,5.53,.96,.7,2.17,.98,3.32,.78,1.1-.19,2.03-.81,2.7-1.78,2.13-3.1,3.86-6.38,5.54-9.74,.08,9.83-2.12,29.86-3.04,38.18-12.84-.13-23.9-10.7-36.68-9.41,1.52-10.76,2.47-21.89,2.92-33.98,.66,1.12,1.32,2.23,1.97,3.34l.06,.11c1.5,2.55,3.05,5.2,4.66,7.74,1.27,2.02,3.73,2.54,5.73,1.22,1.96-1.29,2.49-3.76,1.25-5.74-1.51-2.4-2.98-4.89-4.4-7.29l-.21-.36c-2.73-4.62-5.55-9.39-8.78-13.85,.01-5.1-.05-10.19-.19-15.5,2.11,3.25,4.29,6.72,6.18,10.23,.71,1.32,1.92,2.1,3.36,2.13,1.57-.06,2.97-.86,3.73-2.16,.76-1.29,.79-2.87,.06-4.21-2.61-4.86-5.64-9.48-8.58-13.96-1.68-2.56-3.59-5.46-5.37-8.38-.23-4.6-.49-9.3-.81-14.33,2.06,3.35,4.14,6.41,6.32,9.33,1.62,2.16,4.35,2.08,6.05,.75,.86-.68,1.41-1.62,1.54-2.64,.13-1.02-.16-2.07-.82-2.95-5.11-6.82-9.84-14.79-14.44-24.37l-.68-9.01c.91,1.34,1.83,2.68,2.72,3.97l.11,.16c1.55,2.24,3.31,4.78,4.94,7.35,.86,1.35,2.23,2.06,3.62,1.91,1.52-.09,2.93-1.02,3.61-2.39,.65-1.31,.55-2.79-.26-4.07-1.62-2.55-3.37-5.05-5.1-7.52-4.24-6.06-8.25-11.78-10.67-18.52-.58-1.64-2.14-2.79-3.86-2.87-1.62-.08-3.04,.81-3.73,2.3l-.21,.45c-3.84,8.31-7.81,16.9-14.06,23.17-.79,.79-1.22,1.82-1.23,2.9,0,1.08,.43,2.12,1.21,2.94,1.68,1.75,4.21,1.79,5.89,.11,3.04-3.06,5.87-6.84,8.61-11.54l.95,12.89c-1.72,4.25-4.43,7.96-7.29,11.89-2.43,3.34-4.95,6.79-6.85,10.65-.67,1.37-.6,2.94,.2,4.19,.84,1.32,2.46,2.16,3.82,2.01,1.42-.08,2.62-.9,3.29-2.25,1.79-3.63,4.22-7.01,6.58-10.3,.42-.58,.84-1.17,1.27-1.76,.35,5.26,.64,10.16,.9,14.94-.24,.33-.44,.7-.58,1.08-2.62,7.08-7.97,12.72-13.14,18.18l-1.74,1.84c-1.61,1.71-1.54,4.26,.16,5.93,.82,.81,1.86,1.25,2.93,1.23,.02,0,.03,0,.05,0,1.06-.02,2.06-.49,2.83-1.3l.79-.84c3.19-3.4,6.49-6.92,9.37-10.76,.2,6.18,.3,11.89,.3,17.41-.05,.08-.1,.16-.14,.25-2.04,4.01-4.98,7.34-8.09,10.87-2.69,3.05-5.46,6.2-7.67,9.89-.77,1.29-.83,2.76-.16,4.03,.71,1.34,2.15,2.23,3.68,2.28,1.5,0,2.82-.72,3.6-2.03,1.99-3.32,4.5-6.18,7.21-9.27,.45-.52,.9-1.03,1.36-1.55-.43,13.15-1.48,25.18-3.2,36.74l-.04,.26c-1.02,.13-2.04,.24-3.06,.37-9.17,1.23-18.28,2.82-27.32,4.75v-4.37c-.11-7.22-.38-14.91-.82-23.49,2.22,2.2,4.49,4.47,6.6,6.8,.74,.82,1.72,1.29,2.75,1.33,1.03,.05,2.05-.36,2.86-1.12,.78-.74,1.29-1.78,1.39-2.86,.11-1.19-.27-2.35-1.09-3.26-2.35-2.61-4.86-5.1-7.32-7.54-1.96-1.95-3.99-3.97-5.91-6.03l-.89-14.46c1.74,2.44,3.36,4.92,4.82,7.41,.77,1.31,2.04,2.05,3.47,2.02,1.45,.07,2.92-.85,3.7-2.28,.71-1.31,.66-2.82-.11-4.14-3.5-5.94-7.79-11.79-12.75-17.4-.16-2.87-.31-5.72-.43-8.49,.88,1.55,1.78,3.08,2.65,4.59l.16,.27c.95,1.63,1.89,3.25,2.82,4.89,.75,1.32,2,2.07,3.43,2.06,.01,0,.02,0,.04,0,1.45-.03,2.95-.95,3.67-2.23,.73-1.31,.72-2.83-.05-4.17-.99-1.75-2.02-3.49-3.04-5.24l-.18-.3c-3.47-5.92-7.06-12.04-9.62-18.47-.64-1.62-2.3-2.78-4.04-2.8-1.66,.07-2.92,.91-3.55,2.37-1.24,2.88-2.67,5.75-4.08,8.58-2.88,5.78-5.87,11.76-7.49,18.37-.37,1.49,.02,2.94,1.07,3.98,1.08,1.07,2.71,1.48,4.17,1.07,1.4-.41,2.41-1.5,2.77-2.99,.67-2.71,1.64-5.51,3.05-8.73,.13,2.76,.27,5.55,.43,8.32-1.51,4.77-4.06,9.01-6.78,13.54-1.28,2.13-2.6,4.34-3.79,6.59-.72,1.35-.69,2.86,.07,4.14,.79,1.32,2.26,2.15,3.78,2.11,1.45-.04,2.68-.84,3.4-2.18,1.15-2.16,2.43-4.33,3.67-6.42l.39-.66c.1-.17,.2-.33,.3-.5l.02,.3c.24,3.85,.48,7.71,.72,11.56-2.17,5.23-5.22,9.87-8.46,14.78l-.17,.26c-.98,1.49-1.99,3.03-2.96,4.56-.8,1.26-.89,2.71-.25,3.98,.67,1.34,2.09,2.26,3.63,2.34,1.52,.03,2.89-.7,3.69-1.96,.98-1.56,1.97-3.07,3.08-4.75,.77-1.16,1.55-2.34,2.31-3.54,.35,7.32,.56,13.93,.65,20.15v5.86c-1.43,.34-2.86,.72-4.29,1.08,1.53,2.64,2.92,5.35,4.19,8.13,9.35-2.31,18.8-4.26,28.31-5.78,23.3-3.73,47.01-4.96,70.56-3.82,3.82,.18,7.63,.47,11.43,.8,1.27-2.58,2.53-5.15,3.79-7.72-2.27,1.04-4.91,1.62-8.01,1.55-5.66-.14-3.02,20.35-3.22,15.96Z"/><path class="cls-3" d="M1795.21,263.77s1.52-43.06,1.45-49.09c1.22,1.77,2.46,3.67,3.34,5.82,.36,.86,1.11,1.44,2.01,1.56,.36,.05,.74,.07,1.06-.09,2.14-1.06,1.61-2.88,1.17-3.97-1.25-2.74-2.91-5.18-4.56-7.55-1.16-1.66-2.35-3.38-3.35-5.16-.13-2.45-.3-5.16-.51-8.26,1.69,2.89,2.91,5.45,3.8,8.02,.3,.86,.99,1.48,1.85,1.64,.9,.17,1.84-.17,2.41-.85,.54-.65,.69-1.51,.4-2.36-2.25-6.5-6.27-12.4-9.21-16.71-.15-2.06-.28-3.83-.39-5.49,1.41,2.88,2.46,5.48,3.21,7.94,.26,.87,.9,1.49,1.75,1.69,.88,.21,1.84-.1,2.44-.77,.58-.65,.77-1.52,.5-2.39-1.86-6.12-4.97-11.65-7.98-16.99l-.51-.92c-.14-1.14-.99-1.99-2.11-2.13-1.26-.27-2.54,.5-2.92,1.77l-.33,1.12c-1.52,5.1-3.09,10.38-5.29,15.3-.3,.67-.31,1.41-.03,2.06,.25,.59,.73,1.09,1.31,1.36,.59,.28,1.23,.31,1.81,.09,.57-.22,1.04-.67,1.3-1.27,.7-1.58,1.38-3.25,2.05-5.09,.11,1.57,.22,3.05,.32,4.37-.97,2.3-1.99,4.63-2.98,6.88l-.03,.07c-1.11,2.54-2.25,5.16-3.37,7.81-.29,.69-.28,1.43,.02,2.08,.27,.59,.76,1.08,1.35,1.34,.6,.26,1.23,.28,1.79,.06,.56-.23,1-.68,1.26-1.29,.86-2.05,1.73-4.07,2.75-6.41,.21,2.97,.36,5.44,.48,7.71-1.31,2.04-2.38,4.19-3.41,6.27-1.12,2.27-2.28,4.62-3.72,6.7-.77,1.12-.53,2.5,.56,3.29,.57,.41,1.29,.58,1.98,.46,.65-.12,1.21-.48,1.61-1.06,1.27-1.85,2.3-3.79,3.29-5.8,.05,5.85-1.17,34.81-1.72,39.76-7.64-.08-16.1-3.78-23.7-3.01,.9-6.4,3.26-32.66,3.53-39.85,.4,.67,.79,1.33,1.17,1.99l.04,.06c.89,1.52,1.82,3.09,2.77,4.61,.75,1.2,2.22,1.51,3.41,.73,1.16-.77,1.48-2.24,.74-3.42-.9-1.43-1.77-2.91-2.62-4.34l-.13-.22c-1.62-2.75-3.3-5.58-5.22-8.24,0-3.04-.03-6.06-.11-9.22,1.26,1.93,2.55,3.99,3.68,6.09,.42,.79,1.15,1.25,2,1.27,.93-.03,1.76-.51,2.22-1.28,.45-.77,.47-1.71,.03-2.51-1.55-2.89-3.36-5.64-5.1-8.3-1-1.52-2.14-3.25-3.19-4.99-.13-2.74-.29-5.53-.48-8.52,1.23,1.99,2.46,3.81,3.76,5.55,.97,1.29,2.59,1.24,3.6,.44,.51-.4,.84-.96,.92-1.57,.08-.61-.09-1.23-.49-1.75-3.04-4.06-5.85-8.8-8.59-14.5l-.4-5.36c.54,.8,1.09,1.59,1.62,2.36l.07,.09c.92,1.33,1.97,2.85,2.94,4.37,.51,.8,1.33,1.22,2.15,1.14,.9-.05,1.74-.61,2.15-1.42,.39-.78,.33-1.66-.15-2.42-.97-1.52-2.01-3.01-3.03-4.47-2.52-3.6-4.91-7.01-6.35-11.02-.35-.97-1.27-1.66-2.3-1.71-.96-.05-1.81,.48-2.22,1.37l-.13,.27c-2.28,4.94-4.65,10.05-8.36,13.79-.47,.47-.73,1.08-.73,1.73,0,.64,.25,1.26,.72,1.75,1,1.04,2.51,1.07,3.5,.06,1.81-1.82,3.49-4.07,5.12-6.87l.56,7.67c-1.03,2.53-2.63,4.73-4.34,7.07-1.45,1.98-2.94,4.04-4.08,6.33-.4,.82-.36,1.75,.12,2.49,.5,.78,1.46,1.29,2.27,1.19,.84-.05,1.56-.54,1.95-1.34,1.06-2.16,2.51-4.17,3.92-6.13,.25-.35,.5-.7,.75-1.05,.21,3.13,.38,6.04,.53,8.89-.14,.2-.26,.41-.35,.64-1.56,4.21-4.74,7.57-7.82,10.81l-1.03,1.1c-.95,1.02-.91,2.53,.09,3.53,.49,.48,1.11,.74,1.75,.73,0,0,.02,0,.03,0,.63-.01,1.22-.29,1.68-.78l.47-.5c1.9-2.02,3.86-4.11,5.58-6.4,.12,3.68,.18,7.07,.18,10.36-.03,.05-.06,.1-.08,.15-1.21,2.38-2.96,4.37-4.81,6.47-1.6,1.81-3.25,3.69-4.56,5.88-.46,.77-.49,1.64-.09,2.4,.42,.8,1.28,1.33,2.19,1.35,.89,0,1.68-.43,2.14-1.21,1.18-1.97,2.68-3.68,4.29-5.51,.27-.31,.54-.61,.81-.92-.26,7.82-.88,14.98-1.9,21.86l-.02,.15c-4.2,27.7-2.68,27.48-2.29,19.85,.29-5.5-10.41-17.95-15.79-16.81v-2.6c-.07-4.29-.23-8.87-.49-13.97,1.32,1.31,2.67,2.66,3.92,4.05,.44,.49,1.02,.77,1.64,.79,.61,.03,1.22-.21,1.7-.67,.46-.44,.77-1.06,.83-1.7,.07-.71-.16-1.4-.65-1.94-1.4-1.55-2.89-3.04-4.35-4.49-1.17-1.16-2.37-2.36-3.52-3.58l-.53-8.6c1.04,1.45,2,2.93,2.87,4.41,.46,.78,1.21,1.22,2.06,1.2,.86,.04,1.74-.5,2.2-1.36,.42-.78,.4-1.68-.07-2.46-2.08-3.53-4.63-7.02-7.58-10.35-.1-1.71-.18-3.4-.26-5.05,.53,.92,1.06,1.83,1.58,2.73l.1,.16c.56,.97,1.12,1.94,1.68,2.91,.44,.78,1.19,1.23,2.04,1.23,0,0,.01,0,.02,0,.86-.02,1.75-.56,2.18-1.33,.44-.78,.43-1.69-.03-2.48-.59-1.04-1.2-2.08-1.81-3.12l-.11-.18c-2.06-3.52-4.2-7.16-5.72-10.99-.38-.97-1.37-1.65-2.4-1.67-.99,.04-1.73,.54-2.11,1.41-.74,1.71-1.59,3.42-2.43,5.1-1.72,3.44-3.49,7-4.45,10.93-.22,.89,.01,1.75,.63,2.37,.64,.64,1.61,.88,2.48,.64,.83-.24,1.43-.89,1.65-1.78,.4-1.61,.98-3.28,1.81-5.19,.08,1.64,.16,3.3,.25,4.95-.9,2.84-2.42,5.36-4.04,8.05-.76,1.27-1.55,2.58-2.26,3.92-.43,.81-.41,1.7,.04,2.46,.47,.78,1.35,1.28,2.25,1.25,.86-.02,1.6-.5,2.02-1.3,.68-1.29,1.44-2.57,2.18-3.82l.23-.39c.06-.1,.12-.2,.18-.3v.18c.15,2.29,.3,4.58,.44,6.88-1.29,3.11-3.11,5.87-5.03,8.79l-.1,.16c-.58,.89-1.18,1.8-1.76,2.72-.47,.75-.53,1.61-.15,2.37,.4,.8,1.24,1.35,2.16,1.39,.9,.02,1.72-.41,2.19-1.17,.58-.93,1.17-1.83,1.83-2.82,.46-.69,.92-1.39,1.38-2.11,.21,4.36,.34,8.28,.39,11.98v3.49c-.85,.2-1.7,.43-2.55,.64,.91,1.57,1.74,3.18,2.49,4.84,5.56-1.38,11.18-2.53,16.84-3.44,13.86-2.22,27.96-2.95,41.97-2.27,2.27,.11,4.54,.28,6.8,.47,.75-1.53,11.72,15.91,11.25,14.28,9.39,32.7-7.15,7.95-8.99,7.9-3.37-.08-12.61,6.56-12.74,3.95Z"/></g></svg>